<svg xmlns="http://www.w3.org/2000/svg" viewBox="0 0 800 450" width="800" height="450">
  <defs>
    <linearGradient id="sky0" x1="0%" y1="0%" x2="0%" y2="100%">
      <stop offset="0%" style="stop-color:#87CEEB"/>
      <stop offset="100%" style="stop-color:#E0F4FF"/>
    </linearGradient>
    <linearGradient id="floor0" x1="0%" y1="0%" x2="0%" y2="100%">
      <stop offset="0%" style="stop-color:#FFF9C4"/>
      <stop offset="100%" style="stop-color:#FFF3A3"/>
    </linearGradient>
  </defs>
  <!-- Sky background -->
  <rect width="800" height="450" fill="url(#sky0)"/>
  <!-- Sun -->
  <circle cx="700" cy="70" r="45" fill="#FFD700" opacity="0.9"/>
  <circle cx="700" cy="70" r="38" fill="#FFC200"/>
  <!-- Sun rays -->
  <g stroke="#FFD700" stroke-width="4" stroke-linecap="round">
    <line x1="700" y1="15" x2="700" y2="5"/>
    <line x1="700" y1="125" x2="700" y2="135"/>
    <line x1="645" y1="70" x2="635" y2="70"/>
    <line x1="755" y1="70" x2="765" y2="70"/>
    <line x1="661" y1="31" x2="654" y2="24"/>
    <line x1="739" y1="109" x2="746" y2="116"/>
    <line x1="739" y1="31" x2="746" y2="24"/>
    <line x1="661" y1="109" x2="654" y2="116"/>
  </g>
  <!-- Clouds -->
  <ellipse cx="150" cy="80" rx="80" ry="35" fill="white" opacity="0.85"/>
  <ellipse cx="200" cy="65" rx="60" ry="28" fill="white" opacity="0.9"/>
  <ellipse cx="100" cy="75" rx="50" ry="22" fill="white" opacity="0.8"/>
  <ellipse cx="500" cy="55" rx="70" ry="28" fill="white" opacity="0.75"/>
  <ellipse cx="550" cy="42" rx="55" ry="22" fill="white" opacity="0.8"/>
  <!-- Ground / floor -->
  <rect x="0" y="320" width="800" height="130" fill="url(#floor0)"/>
  <!-- Canteen building -->
  <rect x="30" y="130" width="740" height="200" rx="8" fill="#FFFDE7" stroke="#F9A825" stroke-width="3"/>
  <!-- Roof -->
  <path d="M20 140 L400 60 L780 140 Z" fill="#E65100"/>
  <path d="M20 140 L400 60 L780 140 Z" fill="none" stroke="#BF360C" stroke-width="3"/>
  <!-- Roof tile pattern -->
  <path d="M100 130 L200 90 M200 90 L300 115 M300 115 L400 80 M400 80 L500 115 M500 115 L600 90 M600 90 L700 130" stroke="#BF360C" stroke-width="2" fill="none" opacity="0.4"/>
  <!-- Sign on building -->
  <rect x="260" y="68" width="280" height="40" rx="8" fill="#FF6F00"/>
  <text x="400" y="95" text-anchor="middle" font-family="Nunito,sans-serif" font-weight="900" font-size="20" fill="white">🏫 SCHOOL CANTEEN</text>
  <!-- Stalls row -->
  <!-- Stall 1 - Noodles -->
  <rect x="50" y="180" width="140" height="100" rx="6" fill="#FF7043"/>
  <rect x="50" y="180" width="140" height="28" rx="6" fill="#E53935"/>
  <text x="120" y="200" text-anchor="middle" font-family="Nunito,sans-serif" font-weight="800" font-size="13" fill="white">🍜 NOODLES</text>
  <rect x="60" y="215" width="120" height="60" rx="4" fill="rgba(255,255,255,0.2)"/>
  <text x="120" y="252" text-anchor="middle" font-size="32">🍜</text>
  <!-- Stall 2 - Drinks -->
  <rect x="210" y="180" width="140" height="100" rx="6" fill="#42A5F5"/>
  <rect x="210" y="180" width="140" height="28" rx="6" fill="#1E88E5"/>
  <text x="280" y="200" text-anchor="middle" font-family="Nunito,sans-serif" font-weight="800" font-size="13" fill="white">🥤 DRINKS</text>
  <rect x="220" y="215" width="120" height="60" rx="4" fill="rgba(255,255,255,0.2)"/>
  <text x="280" y="252" text-anchor="middle" font-size="32">🥤</text>
  <!-- Stall 3 - Rice -->
  <rect x="370" y="180" width="140" height="100" rx="6" fill="#66BB6A"/>
  <rect x="370" y="180" width="140" height="28" rx="6" fill="#43A047"/>
  <text x="440" y="200" text-anchor="middle" font-family="Nunito,sans-serif" font-weight="800" font-size="13" fill="white">🍚 RICE</text>
  <rect x="380" y="215" width="120" height="60" rx="4" fill="rgba(255,255,255,0.2)"/>
  <text x="440" y="252" text-anchor="middle" font-size="32">🍚</text>
  <!-- Stall 4 - Snacks -->
  <rect x="530" y="180" width="140" height="100" rx="6" fill="#AB47BC"/>
  <rect x="530" y="180" width="140" height="28" rx="6" fill="#8E24AA"/>
  <text x="600" y="200" text-anchor="middle" font-family="Nunito,sans-serif" font-weight="800" font-size="13" fill="white">🍡 SNACKS</text>
  <rect x="540" y="215" width="120" height="60" rx="4" fill="rgba(255,255,255,0.2)"/>
  <text x="600" y="252" text-anchor="middle" font-size="32">🍡</text>
  <!-- Counter / Floor tiles -->
  <rect x="30" y="280" width="740" height="18" rx="4" fill="#F5F5F5" stroke="#E0E0E0" stroke-width="1"/>
  <g fill="none" stroke="#E0E0E0" stroke-width="1">
    <line x1="130" y1="280" x2="130" y2="298"/>
    <line x1="230" y1="280" x2="230" y2="298"/>
    <line x1="330" y1="280" x2="330" y2="298"/>
    <line x1="430" y1="280" x2="430" y2="298"/>
    <line x1="530" y1="280" x2="530" y2="298"/>
    <line x1="630" y1="280" x2="630" y2="298"/>
  </g>
  <!-- Students at canteen -->
  <!-- Suki (main character) -->
  <circle cx="290" cy="345" r="28" fill="#F5C89E" stroke="#E8A855" stroke-width="2"/>
  <ellipse cx="290" cy="318" rx="30" ry="16" fill="#1a1040"/>
  <circle cx="281" cy="344" r="4.5" fill="#1a1040"/>
  <circle cx="299" cy="344" r="4.5" fill="#1a1040"/>
  <circle cx="282" cy="343" r="1.5" fill="white"/>
  <circle cx="300" cy="343" r="1.5" fill="white"/>
  <path d="M282 357 Q290 364 298 357" stroke="#C0603A" stroke-width="2.5" fill="none" stroke-linecap="round"/>
  <rect x="263" y="310" width="54" height="10" rx="5" fill="#00B5B2"/>
  <rect x="268" y="296" width="44" height="18" rx="7" fill="#00B5B2"/>
  <rect x="262" y="370" width="56" height="35" rx="10" fill="#5B4FCF"/>
  <!-- Magnifier -->
  <circle cx="330" cy="360" r="14" fill="none" stroke="#f5c518" stroke-width="3.5"/>
  <line x1="340" y1="370" x2="350" y2="380" stroke="#f5c518" stroke-width="3.5" stroke-linecap="round"/>
  <!-- Student 2 -->
  <circle cx="430" cy="345" r="22" fill="#FFDAB9" stroke="#E8A855" stroke-width="1.5"/>
  <ellipse cx="430" cy="323" rx="24" ry="12" fill="#3E2723"/>
  <circle cx="422" cy="344" r="3.5" fill="#1a1040"/>
  <circle cx="438" cy="344" r="3.5" fill="#1a1040"/>
  <path d="M423 355 Q430 361 437 355" stroke="#C0603A" stroke-width="2" fill="none"/>
  <rect x="409" y="365" width="42" height="30" rx="8" fill="#FF7043"/>
  <!-- Student 3 -->
  <circle cx="530" cy="345" r="22" fill="#F5C89E" stroke="#E8A855" stroke-width="1.5"/>
  <ellipse cx="530" cy="323" rx="24" ry="12" fill="#212121"/>
  <circle cx="522" cy="344" r="3.5" fill="#1a1040"/>
  <circle cx="538" cy="344" r="3.5" fill="#1a1040"/>
  <path d="M523 355 Q530 361 537 355" stroke="#C0603A" stroke-width="2" fill="none"/>
  <rect x="509" y="365" width="42" height="30" rx="8" fill="#42A5F5"/>
  <!-- Speech bubbles -->
  <rect x="340" y="295" width="130" height="40" rx="10" fill="white" stroke="#f5c518" stroke-width="2"/>
  <path d="M355 335 L345 348 L368 335" fill="white" stroke="#f5c518" stroke-width="2"/>
  <text x="405" y="320" text-anchor="middle" font-family="Nunito,sans-serif" font-weight="800" font-size="12" fill="#1a1040">Which drink is</text>
  <text x="405" y="334" text-anchor="middle" font-family="Nunito,sans-serif" font-weight="800" font-size="12" fill="#1a1040">most popular? 🤔</text>
  <!-- Floor tiles pattern -->
  <g fill="none" stroke="#E0E0E0" stroke-width="1" opacity="0.5">
    <rect x="0" y="300" width="100" height="50" fill="#FFF9C4"/>
    <rect x="100" y="300" width="100" height="50" fill="#FFF3A3"/>
    <rect x="200" y="300" width="100" height="50" fill="#FFF9C4"/>
    <rect x="300" y="300" width="100" height="50" fill="#FFF3A3"/>
    <rect x="400" y="300" width="100" height="50" fill="#FFF9C4"/>
    <rect x="500" y="300" width="100" height="50" fill="#FFF3A3"/>
    <rect x="600" y="300" width="100" height="50" fill="#FFF9C4"/>
    <rect x="700" y="300" width="100" height="50" fill="#FFF3A3"/>
  </g>
  <!-- Title label -->
  <rect x="0" y="420" width="800" height="30" fill="#1a1040" opacity="0.7"/>
  <text x="400" y="440" text-anchor="middle" font-family="Nunito,sans-serif" font-weight="900" font-size="14" fill="#f5c518">📍 Singapore School Canteen — Suki begins her data journey!</text>
</svg>
